<svg width="32" height="32" viewBox="0 0 32 32" fill="none" xmlns="http://www.w3.org/2000/svg">
<g clip-path="url(#clip0_402_6178)">
<path d="M9.99902 2.40625C6.81777 3.73125 3.39902 5.15 2.39277 5.56875C1.39277 5.9875 0.492773 6.375 0.392773 6.4375C0.0490234 6.64375 -0.000976562 6.8625 -0.000976562 8.11875C-0.000976562 9.4375 0.0615234 9.65 0.499023 9.875C0.742773 10 0.830273 10 15.999 10C31.1678 10 31.2553 10 31.499 9.875C31.9365 9.65 31.999 9.4375 31.999 8.125C31.999 6.81875 31.9365 6.6 31.5115 6.38125C31.3803 6.3125 30.1928 5.8125 28.8678 5.2625C17.7178 0.631254 16.1803 4.76837e-06 15.9865 0.0062542C15.8615 0.0062542 13.4615 0.968754 9.99902 2.40625ZM22.0615 5.4375C22.3428 5.58125 22.5615 5.9375 22.5615 6.25C22.5615 6.5625 22.3428 6.91875 22.0615 7.0625C21.824 7.1875 21.7053 7.1875 15.9928 7.1875H10.174L9.92402 7.05C9.29277 6.69375 9.28652 5.8375 9.91152 5.4625L10.1553 5.3125H15.9865C21.7053 5.3125 21.824 5.3125 22.0615 5.4375Z" fill="#FF8045"/>
<path d="M2.99902 16.7188V21.5625H5.37402H7.74902V16.7188V11.875H5.37402H2.99902V16.7188Z" fill="#FF8045"/>
<path d="M24.249 16.7188V21.5625H26.624H28.999V16.7188V11.875H26.624H24.249V16.7188Z" fill="#FF8045"/>
<path d="M15.5488 13.2563C15.2426 13.4126 15.0613 13.7626 15.0613 14.2001V14.5313L14.7363 14.6813C14.3301 14.8688 13.6988 15.4876 13.5051 15.8938C12.9488 17.0501 13.1426 18.2751 14.0301 19.1563C14.5488 19.6813 15.2863 20.0001 15.9738 20.0001C16.4738 20.0001 16.9363 20.4501 16.9363 20.9438C16.9363 21.4063 16.4613 21.8751 15.9926 21.8751C15.5363 21.8751 15.0613 21.4001 15.0613 20.9376C15.0613 20.6251 14.8426 20.2688 14.5613 20.1251C14.2488 19.9688 13.9988 19.9688 13.6863 20.1251C12.6863 20.6313 13.2988 22.6813 14.6551 23.3813L15.0613 23.5938V23.9251C15.0613 24.3688 15.2426 24.7126 15.5613 24.8751C16.2488 25.2251 16.9363 24.7501 16.9363 23.9251V23.5938L17.2676 23.4376C17.6676 23.2501 18.2926 22.6376 18.4926 22.2313C19.0488 21.0813 18.8551 19.8501 17.9676 18.9626C17.4426 18.4376 16.7176 18.1251 16.0176 18.1251C15.5363 18.1251 15.0613 17.6626 15.0613 17.1876C15.0613 16.7251 15.5363 16.2501 15.9926 16.2501C16.4738 16.2501 16.9363 16.7126 16.9363 17.1876C16.9363 17.6626 17.3988 18.1251 17.8738 18.1251C17.9801 18.1251 18.1801 18.0688 18.3113 18.0001C18.8926 17.7001 18.9676 16.8688 18.4926 15.8938C18.2863 15.4813 17.6676 14.8688 17.2676 14.6813L16.9363 14.5313V14.2001C16.9363 13.3688 16.2301 12.8938 15.5488 13.2563Z" fill="#FF8045"/>
<path d="M2.31777 23.5438C1.84902 23.7875 1.75527 24.0938 1.74902 25.3563V26.25H5.38027H9.01152L8.99277 25.2C8.96777 24.0563 8.91777 23.8813 8.54277 23.6C8.36777 23.4688 8.30527 23.4688 5.44902 23.45C2.76152 23.4375 2.51152 23.4438 2.31777 23.5438Z" fill="#FF8045"/>
<path d="M23.5678 23.5438C23.099 23.7875 23.0053 24.0938 22.999 25.3563V26.25H26.6303H30.2615L30.2428 25.2C30.2178 24.0563 30.1678 23.8813 29.7928 23.6C29.6178 23.4688 29.5553 23.4688 26.699 23.45C24.0115 23.4375 23.7615 23.4438 23.5678 23.5438Z" fill="#FF8045"/>
<path d="M0.811523 28.0063C0.542773 28.1188 0.249023 28.375 0.124023 28.625C0.0115234 28.8438 -0.000976562 28.9938 -0.000976562 30.0625C-0.000976562 31.4438 0.0552734 31.65 0.499023 31.875C0.742773 32 0.830273 32 15.999 32C31.1678 32 31.2553 32 31.499 31.875C31.6615 31.7938 31.7928 31.6625 31.874 31.4938C31.999 31.2563 32.0053 31.1563 31.9865 29.9688L31.9678 28.7L31.774 28.4563C31.6678 28.325 31.4865 28.1563 31.374 28.075L31.1678 27.9375L16.0678 27.9438C6.29902 27.9438 0.911523 27.9688 0.811523 28.0063Z" fill="#FF8045"/>
</g>
<defs>
<clipPath id="clip0_402_6178">
<rect width="32" height="32" fill="white"/>
</clipPath>
</defs>
</svg>
