<svg width="32" height="32" viewBox="0 0 32 32" fill="none" xmlns="http://www.w3.org/2000/svg">
<path d="M1.14355 2.60233C1.32308 2.351 1.56722 2.27919 1.86882 2.28637C2.78079 2.30073 3.68557 2.28637 4.59753 2.29355C6.32094 2.30073 7.52731 3.36349 7.76429 5.06535C7.83609 5.58237 7.92944 6.09221 8.01561 6.63796C8.15922 6.63796 8.29567 6.63796 8.42491 6.63796C15.6129 6.63796 22.8009 6.63796 29.9889 6.63796C30.1039 6.63796 30.2188 6.63078 30.3336 6.64513C30.7573 6.67386 30.9584 6.96109 30.8148 7.36322C30.4486 8.43317 30.0751 9.50311 29.7089 10.5659C29.1488 12.1816 28.5887 13.7972 28.0286 15.413C27.5402 16.8132 26.4632 17.5815 24.9767 17.5815C20.022 17.5815 15.0672 17.5815 10.1196 17.5815C10.0047 17.5815 9.88981 17.5815 9.73183 17.5815C9.89699 18.5725 10.0191 19.5419 10.2345 20.4826C10.4356 21.3515 11.2542 21.9044 12.1949 21.9188C12.8698 21.926 13.552 21.9188 14.227 21.9188C18.4566 21.9188 22.6861 21.9188 26.9084 21.9188C27.0161 21.9188 27.1238 21.9116 27.2244 21.926C27.4829 21.9547 27.6695 22.1557 27.6695 22.4142C27.6695 22.6655 27.4901 22.881 27.2388 22.9098C27.1454 22.924 27.0448 22.9168 26.9514 22.9168C22.126 22.9168 17.2933 22.8882 12.4677 22.9312C10.9239 22.9456 9.38715 22.048 9.08555 20.0015C8.53982 16.2244 7.9079 12.4616 7.31189 8.69167C7.11801 7.44938 6.9313 6.20711 6.71589 4.972C6.55072 3.98104 5.72493 3.29887 4.71961 3.29169C3.76456 3.2845 2.80233 3.27732 1.84728 3.29887C1.5385 3.30605 1.30153 3.21988 1.14355 2.94701C1.14355 2.83211 1.14355 2.71722 1.14355 2.60233Z" fill="#FF5502"/>
<path d="M20.5098 27.5772C20.5027 26.0118 21.7809 24.7265 23.3463 24.7337C24.8973 24.7337 26.1611 26.0046 26.1683 27.5629C26.1755 29.1211 24.9188 30.3922 23.3607 30.4065C21.7952 30.4209 20.5242 29.1499 20.5098 27.5772Z" fill="#FF5502"/>
<path d="M15.6767 27.5628C15.6839 29.1355 14.413 30.4136 12.8475 30.4064C11.2892 30.4064 10.0254 29.1427 10.0254 27.5844C10.0182 26.0118 11.2892 24.7336 12.8547 24.7336C14.4058 24.7336 15.6695 25.9974 15.6767 27.5628Z" fill="#FF5502"/>
</svg>
