<svg width="32" height="32" viewBox="0 0 32 32" fill="none" xmlns="http://www.w3.org/2000/svg">
<g clip-path="url(#clip0_402_6263)">
<path opacity="0.994" fill-rule="evenodd" clip-rule="evenodd" d="M4.59441 3.71862C7.24041 3.63537 9.7196 4.22912 12.0319 5.49987C13.2983 6.30787 14.3087 7.35993 15.0632 8.65612C15.1048 14.7811 15.1048 20.9061 15.0632 27.0311C12.8508 24.8786 10.1946 23.6598 7.09441 23.3749C6.24044 23.3101 5.38627 23.2476 4.53191 23.1874C4.21784 23.0818 3.97825 22.8839 3.81316 22.5936C3.70944 16.5763 3.68861 10.5555 3.75066 4.53112C3.90172 4.11955 4.18297 3.84871 4.59441 3.71862Z" fill="#0AC3FF"/>
<path opacity="0.994" fill-rule="evenodd" clip-rule="evenodd" d="M25.9688 3.71872C26.4948 3.69337 27.0157 3.72462 27.5313 3.81247C27.8598 3.95349 28.0786 4.19307 28.1875 4.53122C28.2496 10.5556 28.2287 16.5764 28.125 22.5937C27.96 22.884 27.7203 23.0819 27.4063 23.1875C25.2641 23.2042 23.1808 23.5584 21.1563 24.25C19.5148 24.8565 18.0878 25.7836 16.875 27.0312C16.8333 20.9062 16.8333 14.7812 16.875 8.65622C18.2186 6.44635 20.1456 4.99843 22.6563 4.31247C23.7525 4.01877 24.8566 3.82085 25.9688 3.71872Z" fill="#0AC3FF"/>
<path opacity="0.978" fill-rule="evenodd" clip-rule="evenodd" d="M-0.03125 27.4062C-0.03125 21.0937 -0.03125 14.7812 -0.03125 8.46872C0.145491 8.01491 0.478825 7.75454 0.96875 7.68747C1.30143 7.65629 1.63477 7.64585 1.96875 7.65622C1.95833 12.5313 1.96875 17.4063 2 22.2812C2.22675 23.8588 3.133 24.7442 4.71875 24.9375C7.18744 24.9088 9.52075 25.4505 11.7188 26.5625C12.3761 26.9488 12.9803 27.4072 13.5312 27.9375C10.4261 27.3257 7.30113 27.2423 4.15625 27.6875C3.14283 27.8485 2.13241 28.0256 1.125 28.2187C0.554208 28.1985 0.168791 27.9277 -0.03125 27.4062Z" fill="#0AC3FF"/>
<path opacity="0.978" fill-rule="evenodd" clip-rule="evenodd" d="M31.9688 8.4687C31.9688 14.7812 31.9688 21.0937 31.9688 27.4062C31.7687 27.9276 31.3833 28.1985 30.8125 28.2187C27.8789 27.5562 24.9101 27.2958 21.9062 27.4375C20.7236 27.5243 19.5569 27.6909 18.4062 27.9375C20.0724 26.4225 22.0308 25.5058 24.2812 25.1875C25.2547 25.0386 26.2338 24.9553 27.2188 24.9375C28.8045 24.7441 29.7107 23.8588 29.9375 22.2812C29.9688 17.4063 29.9792 12.5313 29.9688 7.6562C30.4586 7.62295 30.9377 7.67502 31.4062 7.81245C31.6751 7.9667 31.8626 8.18545 31.9688 8.4687Z" fill="#0AC3FF"/>
</g>
<defs>
<clipPath id="clip0_402_6263">
<rect width="32" height="32" fill="white"/>
</clipPath>
</defs>
</svg>
