<svg width="32" height="32" viewBox="0 0 32 32" fill="none" xmlns="http://www.w3.org/2000/svg">
<g clip-path="url(#clip0_402_6199)">
<path d="M30.3957 14.9383C30.3869 15.418 30.2181 15.8445 29.8805 16.1999C29.2408 16.8484 28.6011 17.497 27.9525 18.1278C27.1796 18.8741 26.0957 18.8386 25.305 18.0478C22.2221 14.9738 19.148 11.8909 16.0651 8.81688C15.3632 8.11501 14.6702 7.42203 13.9684 6.72014C13.1243 5.86723 13.1155 4.8011 13.9684 3.95708C14.537 3.37958 15.1145 2.81097 15.692 2.24237C16.5271 1.41611 17.6377 1.41611 18.4728 2.25126C22.2398 6.01827 26.0068 9.79419 29.7828 13.5612C30.1559 13.9255 30.3869 14.3785 30.3957 14.9383Z" fill="#009E9D"/>
<path d="M1.60059 17.0173C1.61836 16.5465 1.79604 16.1201 2.13366 15.7735C2.75558 15.1427 3.37748 14.5119 4.01716 13.89C4.78124 13.1526 5.90068 13.1437 6.64697 13.8989C10.4673 17.7103 14.2876 21.5307 18.0991 25.351C18.8631 26.115 18.8454 27.199 18.0902 27.9719C17.5039 28.5761 16.8997 29.1713 16.3044 29.7666C15.4516 30.6107 14.3853 30.6107 13.5413 29.7577C10.032 26.2483 6.52259 22.7389 3.01323 19.2296C2.72003 18.9364 2.42685 18.6521 2.14254 18.359C1.78716 17.9769 1.60947 17.5415 1.60059 17.0173Z" fill="#009E9D"/>
<path d="M1.66517 19.4338C5.29893 23.0676 8.91492 26.6836 12.5665 30.3351C12.0956 30.7793 11.6425 31.2858 11.1005 31.6855C10.3986 32.2009 9.46576 32.0498 8.79942 31.3924C7.15579 29.7577 5.51216 28.114 3.87742 26.4704C2.81128 25.4042 1.74513 24.3381 0.670113 23.2631C-0.218336 22.3746 -0.218336 21.3263 0.678997 20.4289C1.01661 20.0913 1.34533 19.7537 1.66517 19.4338Z" fill="#009E9D"/>
<path d="M19.4854 1.69139C19.8852 1.27382 20.2673 0.811821 20.7026 0.429788C21.4399 -0.201011 22.4883 -0.129934 23.2079 0.580824C24.2742 1.63807 25.3314 2.69533 26.3886 3.76147C28.0323 5.4051 29.667 7.03985 31.3107 8.68348C32.2346 9.60746 32.2258 10.6381 31.3017 11.5709C30.973 11.8997 30.6444 12.2284 30.3334 12.5483C26.6996 8.91448 23.0925 5.29849 19.4854 1.69139Z" fill="#009E9D"/>
<path d="M16.9112 11.2246C18.1906 12.504 19.4877 13.8011 20.7671 15.0805C18.8835 16.9639 16.9912 18.8564 15.1165 20.7309C13.8549 19.4605 12.5489 18.1545 11.2695 16.8662C13.1175 15.0183 15.0099 13.1259 16.9112 11.2246Z" fill="#009E9D"/>
<path d="M5.88576 30.0063C5.07727 31.1079 3.82456 31.2145 2.88281 30.2727C2.51854 29.9174 2.16317 29.5531 1.7989 29.1889C0.777182 28.1671 0.830489 27.0388 2.02101 26.0615C3.30926 27.3764 4.59752 28.6913 5.88576 30.0063Z" fill="#009E9D"/>
<path d="M26.1445 1.9313C26.9263 0.88293 28.1968 0.7852 29.1298 1.71807C29.5028 2.08234 29.8671 2.45548 30.2314 2.81975C31.2265 3.81481 31.1465 4.99644 30.0537 5.84935C28.7566 4.54333 27.4505 3.23732 26.1445 1.9313Z" fill="#009E9D"/>
</g>
<defs>
<clipPath id="clip0_402_6199">
<rect width="32" height="32" fill="white"/>
</clipPath>
</defs>
</svg>
