<svg width="32" height="32" viewBox="0 0 32 32" fill="none" xmlns="http://www.w3.org/2000/svg">
<g clip-path="url(#clip0_402_6211)">
<path opacity="0.992" fill-rule="evenodd" clip-rule="evenodd" d="M31.9688 9.59368C31.9688 10.3437 31.9688 11.0937 31.9688 11.8437C31.5926 14.2629 30.6655 16.4504 29.1875 18.4062C27.7115 20.2996 26.0969 22.0808 24.3438 23.7499C21.8673 26.0084 19.3673 28.2376 16.8438 30.4374C16.2604 30.8124 15.6771 30.8124 15.0938 30.4374C12.1399 27.9006 9.22325 25.3172 6.34375 22.6874C4.68767 21.1157 3.21892 19.397 1.9375 17.5312C0.875794 15.8145 0.219546 13.9603 -0.03125 11.9687C-0.03125 11.1979 -0.03125 10.427 -0.03125 9.65618C0.480257 6.10176 2.35526 3.54967 5.59375 1.99993C9.36756 0.611878 12.8259 1.16396 15.9688 3.65618C18.9285 1.29554 22.2202 0.680953 25.8438 1.81243C29.3429 3.25861 31.3846 5.85236 31.9688 9.59368ZM14.0312 9.21868C15.3229 9.21868 16.6146 9.21868 17.9062 9.21868C17.9062 10.5104 17.9062 11.802 17.9062 13.0937C19.1979 13.0937 20.4896 13.0937 21.7812 13.0937C21.7812 14.3645 21.7812 15.6354 21.7812 16.9062C20.4896 16.9062 19.1979 16.9062 17.9062 16.9062C17.9062 18.1979 17.9062 19.4895 17.9062 20.7812C16.6146 20.7812 15.3229 20.7812 14.0312 20.7812C14.0312 19.4895 14.0312 18.1979 14.0312 16.9062C12.7396 16.9062 11.4479 16.9062 10.1562 16.9062C10.1562 15.6354 10.1562 14.3645 10.1562 13.0937C11.4479 13.0937 12.7396 13.0937 14.0312 13.0937C14.0312 11.802 14.0312 10.5104 14.0312 9.21868Z" fill="#EA6190"/>
</g>
<defs>
<clipPath id="clip0_402_6211">
<rect width="32" height="32" fill="white"/>
</clipPath>
</defs>
</svg>
