<svg width="32" height="32" viewBox="0 0 32 32" fill="none" xmlns="http://www.w3.org/2000/svg">
<g clip-path="url(#clip0_402_6217)">
<path d="M15.7063 0.0935082C15.6313 0.143508 15.3625 0.624758 15.1 1.15601C14.8438 1.68726 14.5938 2.12476 14.55 2.12476C14.5063 2.12476 14.0188 2.19351 13.475 2.27476C12.5563 2.40601 12.4688 2.43101 12.3313 2.58726C12.0375 2.93101 12.15 3.14351 13.0813 4.01226L13.8 4.68101L13.6188 5.69976C13.5188 6.26226 13.4375 6.76851 13.4375 6.82476C13.4375 7.01226 13.7438 7.31226 13.9438 7.31226C14.05 7.31226 14.5063 7.11226 15.0625 6.81851L16 6.31851L16.9375 6.81851C17.45 7.08726 17.9438 7.31226 18.0375 7.31226C18.225 7.31226 18.5625 7.00601 18.5625 6.83101C18.5625 6.76851 18.4813 6.26226 18.3813 5.69976L18.2 4.68101L18.9188 4.01226C19.8688 3.13101 19.9813 2.90601 19.6438 2.56851C19.4813 2.41851 19.375 2.38726 18.4125 2.24976L17.3563 2.09976L16.9 1.16226C16.6438 0.643508 16.3813 0.168509 16.3063 0.106009C16.1438 -0.0252414 15.8875 -0.0314913 15.7063 0.0935082Z" fill="#C0645B"/>
<path d="M9.04403 3.88113C8.98778 3.91238 8.88153 4.05613 8.81278 4.18738C8.70653 4.39988 8.65028 4.44363 8.42528 4.48113C7.88153 4.56238 7.70653 5.02488 8.06278 5.43738C8.21903 5.62488 8.24403 5.71238 8.25028 6.00613C8.25028 6.28738 8.27528 6.38113 8.39403 6.48738C8.56903 6.64988 8.85028 6.66238 9.14403 6.52488C9.33778 6.43113 9.36903 6.43113 9.55028 6.52488C9.83778 6.67488 10.1065 6.64988 10.294 6.46238C10.4378 6.31863 10.4503 6.26863 10.419 5.98738C10.3815 5.68738 10.394 5.64988 10.594 5.42488C10.7253 5.28113 10.8128 5.12488 10.8128 5.02488C10.8128 4.79363 10.5128 4.52488 10.2065 4.46863C10.0003 4.43738 9.93153 4.39363 9.87528 4.24363C9.72528 3.88738 9.33153 3.71238 9.04403 3.88113Z" fill="#C0645B"/>
<path d="M22.362 3.93743C22.2745 3.99993 22.1683 4.14368 22.1245 4.24368C22.062 4.39993 22.0058 4.43743 21.7745 4.47493C21.5745 4.49993 21.4558 4.56868 21.3433 4.69993C21.1308 4.94993 21.1433 5.14368 21.4058 5.42493C21.6058 5.64993 21.6183 5.68743 21.5808 5.98743C21.5495 6.26868 21.562 6.31868 21.7058 6.46243C21.8933 6.64993 22.1433 6.67493 22.4558 6.52493C22.6495 6.43118 22.6808 6.43118 22.862 6.52493C23.1495 6.67493 23.4495 6.65618 23.6183 6.47493C23.7308 6.35618 23.7558 6.26243 23.7433 6.01243C23.7308 5.74368 23.7558 5.67493 23.9245 5.46243C24.2933 5.01868 24.1308 4.56868 23.5745 4.48118C23.3495 4.44368 23.2933 4.39993 23.187 4.18743C22.987 3.79993 22.662 3.69993 22.362 3.93743Z" fill="#C0645B"/>
<path d="M4.31875 6.61866C4.25 6.68741 4.15 6.82491 4.1 6.92491C4.025 7.06241 3.95 7.11866 3.7625 7.14991C3.3875 7.20616 3.21875 7.37491 3.21875 7.68116C3.21875 7.88116 3.2625 7.97491 3.41875 8.13741C3.6 8.32491 3.6125 8.36866 3.58125 8.66866C3.55 8.95616 3.5625 9.00616 3.70625 9.14991C3.9 9.34366 4.14375 9.36241 4.46875 9.20616C4.675 9.10616 4.7 9.10616 4.90625 9.20616C5.21875 9.35616 5.41875 9.33741 5.6 9.15616C5.7375 9.01866 5.75625 8.94991 5.7375 8.66241C5.71875 8.36241 5.7375 8.31241 5.925 8.09991C6.2875 7.68741 6.11875 7.23741 5.5625 7.14991C5.34375 7.11241 5.2875 7.06866 5.18125 6.86866C5.11875 6.73741 5.00625 6.59991 4.94375 6.56241C4.75 6.46241 4.45 6.48741 4.31875 6.61866Z" fill="#C0645B"/>
<path d="M27.044 6.56866C26.9878 6.59991 26.8815 6.73741 26.8128 6.86866C26.7065 7.08116 26.6565 7.11241 26.4128 7.14991C25.8753 7.23116 25.7128 7.68741 26.0753 8.09366C26.2503 8.29991 26.269 8.35616 26.2565 8.68741C26.244 9.01241 26.2565 9.06241 26.4128 9.18116C26.6128 9.33741 26.8003 9.34991 27.094 9.20616C27.3003 9.10616 27.3253 9.10616 27.5315 9.20616C27.8565 9.36241 28.1003 9.34366 28.294 9.14991C28.4378 9.00616 28.4503 8.95616 28.419 8.66866C28.3878 8.36866 28.4003 8.32491 28.5815 8.13741C28.7378 7.97491 28.7815 7.88116 28.7815 7.68116C28.7815 7.37491 28.6128 7.20616 28.2378 7.14991C28.0503 7.11866 27.9753 7.06241 27.9003 6.92491C27.694 6.53116 27.3565 6.38741 27.044 6.56866Z" fill="#C0645B"/>
<path d="M11.0188 9.49976C10.3188 9.60601 9.69375 10.081 9.3875 10.7373L9.21875 11.0935L9.2 21.3623L9.1875 31.631L9.36875 31.8185L9.55 31.9998H11.0875C12.7125 31.9998 12.8688 31.9748 12.9938 31.706C13.0438 31.606 13.0625 30.5873 13.0625 28.431C13.0625 25.2248 13.0688 25.1373 13.3063 24.956C13.45 24.8435 18.55 24.8435 18.6938 24.956C18.9313 25.1373 18.9375 25.2248 18.9375 28.431C18.9375 30.5873 18.9563 31.606 19.0063 31.706C19.1313 31.9748 19.2875 31.9998 20.9125 31.9998H22.45L22.6313 31.8185L22.8125 31.631L22.8 21.3623L22.7813 11.0935L22.6125 10.731C22.3875 10.2623 21.9125 9.79976 21.4563 9.61226L21.0938 9.46851L16.2188 9.46226C13.5375 9.45601 11.2 9.47476 11.0188 9.49976ZM19.3625 14.9748C19.5813 15.1248 19.6375 15.3435 19.5375 15.5935C19.4875 15.706 19.3938 15.831 19.325 15.8685C19.2375 15.9185 18.1625 15.9373 15.975 15.9373H12.7563L12.5938 15.7935C12.35 15.5873 12.35 15.2248 12.5875 15.0248L12.7563 14.8748H15.9875C18.85 14.8748 19.2375 14.8873 19.3625 14.9748ZM18.475 20.1498C18.6063 20.2623 18.65 20.3498 18.65 20.531C18.65 20.7123 18.6063 20.7998 18.475 20.9123L18.3063 21.0623H16H13.6938L13.525 20.9123C13.3938 20.7998 13.35 20.7123 13.35 20.531C13.35 20.3498 13.3938 20.2623 13.525 20.1498L13.6938 19.9998H16H18.3063L18.475 20.1498Z" fill="#C0645B"/>
<path d="M4.29375 17.1311C3.7125 17.2686 3.15 17.7249 2.875 18.2811L2.71875 18.5936V24.5311V30.4686L2.8625 30.7561C3.09375 31.2249 3.40625 31.5374 3.8625 31.7624L4.275 31.9686L6.04375 31.9874L7.8125 32.0061L7.96875 31.8499L8.125 31.6936V24.5499C8.11875 16.9874 8.13125 17.2936 7.83125 17.1374C7.66875 17.0499 4.6625 17.0436 4.29375 17.1311ZM6.15625 22.0311C6.3125 22.1811 6.3125 22.1811 6.3125 23.5311C6.3125 24.8811 6.3125 24.8811 6.15625 25.0311C5.93125 25.2624 5.61875 25.2436 5.4125 24.9936L5.25 24.7999V23.5186V22.2374L5.43125 22.0561C5.66875 21.8249 5.94375 21.8124 6.15625 22.0311Z" fill="#C0645B"/>
<path d="M24.1562 17.1374C23.8687 17.3061 23.8813 17.0249 23.875 24.5499V31.6936L24.0312 31.8499L24.1875 32.0061L25.9562 31.9874L27.725 31.9686L28.1375 31.7624C28.5938 31.5374 28.9062 31.2249 29.1375 30.7561L29.2812 30.4686V24.5311V18.5936L29.0687 18.1999C28.8313 17.7624 28.4938 17.4499 28.025 17.2374C27.7313 17.0999 27.6375 17.0936 26 17.0749C24.7625 17.0686 24.2438 17.0811 24.1562 17.1374ZM26.5438 22.0249L26.7188 22.1749L26.7375 23.4874L26.7563 24.7936L26.5938 24.9936C26.3813 25.2436 26.0688 25.2624 25.8438 25.0311C25.6875 24.8811 25.6875 24.8811 25.6875 23.5311C25.6875 22.1811 25.6875 22.1811 25.8438 22.0311C26.0375 21.8311 26.3125 21.8311 26.5438 22.0249Z" fill="#C0645B"/>
<path d="M14.3063 26.1185L14.125 26.2998V28.9685V31.6373L14.3063 31.8185L14.4875 31.9998H16H17.5125L17.6938 31.8185L17.875 31.6373V28.9685V26.2998L17.6938 26.1185L17.5125 25.9373H16H14.4875L14.3063 26.1185Z" fill="#C0645B"/>
</g>
<defs>
<clipPath id="clip0_402_6217">
<rect width="32" height="32" fill="white"/>
</clipPath>
</defs>
</svg>
