<svg width="32" height="32" viewBox="0 0 32 32" fill="none" xmlns="http://www.w3.org/2000/svg">
<path d="M4.93678 1.35007C4.38053 1.43756 4.03053 1.54382 3.56178 1.76257C2.81178 2.12506 2.11803 2.81256 1.76178 3.56256C1.31803 4.50631 1.34303 3.86881 1.34303 13.4063V22.0313L1.51803 22.5438C1.85553 23.5501 2.57428 24.3876 3.49928 24.8751C4.40553 25.3438 3.50553 25.3126 15.9805 25.3126C23.7868 25.3126 27.2805 25.2938 27.5118 25.2438C28.018 25.1438 28.918 24.6751 29.3243 24.3126C30.0243 23.6876 30.4743 22.8251 30.6243 21.8438C30.668 21.5501 30.6868 18.7063 30.6743 13.0313C30.6493 3.70006 30.6868 4.46881 30.2118 3.50631C29.8868 2.85007 29.143 2.10632 28.4993 1.78757C27.518 1.30631 28.6305 1.35007 16.218 1.33756C10.0993 1.33131 5.02428 1.33756 4.93678 1.35007ZM15.1555 9.17506C15.6805 9.43756 20.3618 12.1563 20.493 12.2751C20.7243 12.4813 20.9368 12.9876 20.9368 13.3501C20.9368 13.7376 20.693 14.2563 20.4118 14.4626C20.3055 14.5438 19.0493 15.2501 17.6243 16.0376L15.0305 17.4688H14.518C14.0555 17.4688 13.9868 17.4501 13.743 17.2813C13.4305 17.0626 13.218 16.7688 13.1243 16.4438C13.0305 16.1126 13.043 10.3688 13.1368 10.0563C13.2243 9.76256 13.5618 9.35006 13.8368 9.20631C14.243 8.98756 14.768 8.97506 15.1555 9.17506Z" fill="#FDC330"/>
<path d="M2.06776 28.1624C0.961506 28.7187 1.17401 30.3624 2.38026 30.6249C2.63026 30.6749 4.85526 30.6874 10.8803 30.6749L19.0428 30.6562L19.3428 30.4687C19.7865 30.1937 20.024 29.7312 19.9803 29.2312C19.9428 28.7937 19.7365 28.4499 19.3615 28.2062L19.099 28.0312L10.749 28.0124L2.39901 27.9999L2.06776 28.1624Z" fill="#FDC330"/>
<path d="M23.4992 28.1C22.8305 28.3875 22.5055 29.1875 22.7805 29.8625C23.1805 30.8125 24.4867 30.9375 25.0867 30.075C25.3367 29.7187 25.3867 29.1437 25.1992 28.775C24.8617 28.125 24.1242 27.8312 23.4992 28.1Z" fill="#FDC330"/>
<path d="M28.8871 28.0686C28.7684 28.1061 28.5559 28.2561 28.4059 28.3998C27.9684 28.8373 27.8871 29.3686 28.1621 29.9311C28.5809 30.7686 29.6871 30.9186 30.2996 30.2123C31.2121 29.1811 30.2309 27.6873 28.8871 28.0686Z" fill="#FDC330"/>
</svg>
