<svg width="32" height="32" viewBox="0 0 32 32" fill="none" xmlns="http://www.w3.org/2000/svg">
<g clip-path="url(#clip0_402_6249)">
<path opacity="0.985" fill-rule="evenodd" clip-rule="evenodd" d="M16.5314 -0.03125C16.698 -0.03125 16.8647 -0.03125 17.0314 -0.03125C18.189 0.855781 19.3452 1.75161 20.5001 2.65625C20.5209 2.28125 20.5418 1.90625 20.5626 1.53125C20.7356 1.17672 21.0169 1.06214 21.4064 1.1875C21.4793 1.26042 21.5522 1.33333 21.6251 1.40625C21.703 2.13186 21.7447 2.86102 21.7501 3.59375C22.6299 4.27841 23.5153 4.95549 24.4064 5.625C24.8963 5.93953 24.9588 6.31456 24.5939 6.75C24.1845 6.83875 23.7679 6.87 23.3439 6.84375C23.3745 10.099 23.3433 13.349 23.2501 16.5938C23.1742 16.6906 23.0805 16.7634 22.9689 16.8125C18.8439 16.8542 14.7189 16.8542 10.5939 16.8125C10.4822 16.7634 10.3885 16.6906 10.3126 16.5938C10.2194 13.349 10.1882 10.099 10.2189 6.84375C9.79486 6.87 9.37823 6.83875 8.96886 6.75C8.69361 6.50469 8.65192 6.22341 8.84386 5.90625C11.4219 3.94096 13.9844 1.96179 16.5314 -0.03125ZM15.3439 11.2812C16.3022 11.2812 17.2605 11.2812 18.2189 11.2812C18.2189 12.7604 18.2189 14.2396 18.2189 15.7188C17.2605 15.7188 16.3022 15.7188 15.3439 15.7188C15.3439 14.2396 15.3439 12.7604 15.3439 11.2812Z" fill="#875A79"/>
<path opacity="0.901" fill-rule="evenodd" clip-rule="evenodd" d="M22.5312 19.9689C22.9307 19.9246 23.3057 19.9974 23.6562 20.1876C23.7058 20.2554 23.7475 20.3284 23.7812 20.4064C22.9293 20.8688 22.0647 21.3063 21.1875 21.7189C20.7196 21.5004 20.2299 21.3442 19.7188 21.2501C20.5749 20.6353 21.5124 20.2082 22.5312 19.9689Z" fill="#875A79"/>
<path opacity="0.933" fill-rule="evenodd" clip-rule="evenodd" d="M26.4062 20.4064C27.0176 20.3773 27.5176 20.5961 27.9062 21.0626C26.3693 21.951 24.8172 22.8156 23.25 23.6564C23.0178 23.1497 22.6949 22.7122 22.2812 22.3439C23.3396 21.7937 24.4021 21.2417 25.4688 20.6876C25.7834 20.5721 26.0959 20.4783 26.4062 20.4064Z" fill="#875A79"/>
<path opacity="0.987" fill-rule="evenodd" clip-rule="evenodd" d="M-0.03125 21.3438C1.57292 21.3438 3.17708 21.3438 4.78125 21.3438C4.78125 24.8854 4.78125 28.4271 4.78125 31.9688C3.17708 31.9688 1.57292 31.9688 -0.03125 31.9688C-0.03125 28.4271 -0.03125 24.8854 -0.03125 21.3438Z" fill="#875A79"/>
<path opacity="0.979" fill-rule="evenodd" clip-rule="evenodd" d="M31.9688 22.0314C31.9688 22.1564 31.9688 22.2814 31.9688 22.4064C28.1696 25.0489 24.3779 27.7051 20.5938 30.3751C20.3882 30.53 20.159 30.6341 19.9063 30.6876C18.2171 30.9003 16.5296 30.8795 14.8438 30.6251C12.4304 30.2716 10.045 29.782 7.6875 29.1564C7.05556 29.4724 6.43056 29.8057 5.8125 30.1564C5.77083 27.8647 5.77083 25.573 5.8125 23.2814C8.17775 21.399 10.7507 21.076 13.5313 22.3126C15.6141 22.2814 17.6974 22.2814 19.7813 22.3126C20.6406 22.4766 21.3802 22.862 22 23.4689C22.1429 23.6296 22.2158 23.8171 22.2188 24.0314C19.3628 24.5699 16.5086 25.122 13.6563 25.6876C13.2474 25.906 13.1849 26.1977 13.4688 26.5626C13.6899 26.6566 13.9191 26.6774 14.1563 26.6251C17.1341 26.035 20.1133 25.4517 23.0938 24.8751C24.9996 23.8493 26.8954 22.8077 28.7813 21.7501C29.6961 21.5209 30.6128 21.5001 31.5313 21.6876C31.7263 21.748 31.8721 21.8626 31.9688 22.0314Z" fill="#875A79"/>
</g>
<defs>
<clipPath id="clip0_402_6249">
<rect width="32" height="32" fill="white"/>
</clipPath>
</defs>
</svg>
