<svg width="32" height="32" viewBox="0 0 32 32" fill="none" xmlns="http://www.w3.org/2000/svg">
<g clip-path="url(#clip0_402_6231)">
<mask id="mask0_402_6231" style="mask-type:luminance" maskUnits="userSpaceOnUse" x="0" y="0" width="32" height="32">
<path d="M32 0H0V32H32V0Z" fill="white"/>
</mask>
<g mask="url(#mask0_402_6231)">
<path d="M31.9981 15.06C31.9981 15.6866 31.9981 16.3067 31.9981 16.9332C31.9781 17.02 31.9514 17.1133 31.9448 17.1999C31.7914 19.4333 31.2114 21.5533 30.1181 23.5C27.1714 28.74 22.6781 31.5933 16.6714 31.9666C13.7981 32.1467 11.0448 31.5266 8.52476 30.1266C3.25809 27.1933 0.398091 22.6932 0.0247583 16.6733C-0.168575 13.5067 0.584758 10.5199 2.25809 7.81994C5.30476 2.91994 9.73809 0.299949 15.5048 0.0199484C18.0314 -0.106718 20.4648 0.393282 22.7381 1.50661C27.6781 3.91994 30.6914 7.83994 31.7448 13.2466C31.8648 13.8399 31.9114 14.4532 31.9981 15.06ZM28.3781 7.71994C28.3381 7.65329 28.2914 7.54661 28.2248 7.44661C26.7048 5.29328 24.7514 3.64661 22.3714 2.51329C22.2381 2.44661 22.0248 2.43994 21.8847 2.49329C20.1981 3.15329 18.5247 3.82661 16.8447 4.49329C16.6447 4.57329 16.5581 4.65994 16.5581 4.89329C16.5714 6.50661 16.5581 8.11994 16.5714 9.73329C16.5714 9.87329 16.6581 10.0599 16.7647 10.1466C18.3848 11.4533 20.0114 12.7533 21.6447 14.0466C21.7448 14.1266 21.9381 14.1533 22.0514 14.1133C23.7114 13.5732 25.3647 13.0132 27.0248 12.4733C27.2181 12.4066 27.3048 12.3066 27.3448 12.1133C27.4914 11.4533 27.6514 10.7999 27.8047 10.1399C27.9914 9.35329 28.1781 8.56662 28.3781 7.71994ZM15.4314 7.33329C15.4314 6.51329 15.4248 5.68661 15.4381 4.86661C15.4381 4.68661 15.3848 4.59329 15.2114 4.51994C13.4847 3.84661 11.7714 3.15994 10.0448 2.48661C9.93809 2.44661 9.77142 2.44661 9.67142 2.49329C7.23809 3.63994 5.26476 5.31994 3.73142 7.51994C3.67142 7.60662 3.63809 7.75329 3.65809 7.85994C3.98476 9.28661 4.33142 10.7133 4.65809 12.1399C4.69809 12.3266 4.78476 12.4132 4.96476 12.4733C6.62476 13.02 8.27809 13.5732 9.93809 14.1133C10.0581 14.1533 10.2514 14.1266 10.3448 14.0466C11.9781 12.7533 13.6047 11.4533 15.2248 10.1466C15.3314 10.0599 15.4181 9.87329 15.4181 9.73329C15.4381 8.93994 15.4314 8.13329 15.4314 7.33329ZM30.8514 17.4267C30.8314 17.3933 30.7848 17.3 30.7247 17.2267C29.7381 16.0399 28.7514 14.86 27.7714 13.6733C27.6581 13.5332 27.5647 13.4932 27.3781 13.5533C25.7247 14.1133 24.0648 14.66 22.4181 15.22C22.3048 15.26 22.1781 15.3867 22.1448 15.5C21.6447 17.4532 21.1581 19.4066 20.6847 21.3666C20.6581 21.4733 20.6847 21.6399 20.7514 21.7266C21.5247 22.7732 22.3114 23.8066 23.1048 24.8399C23.1647 24.9199 23.3114 24.9867 23.4047 24.9732C25.0181 24.7266 26.6314 24.4733 28.2447 24.2066C28.3848 24.1867 28.5514 24.0667 28.6181 23.9467C29.0981 23.0066 29.6114 22.0733 30.0181 21.1C30.4914 19.9533 30.7247 18.7332 30.8514 17.4267ZM8.73809 25.0066C8.79142 24.9599 8.87809 24.9 8.94476 24.82C9.71809 23.7999 10.4848 22.7732 11.2448 21.7467C11.3114 21.6532 11.3448 21.4932 11.3181 21.3867C10.8381 19.4267 10.3514 17.4733 9.85809 15.5133C9.83142 15.3999 9.70476 15.2667 9.59142 15.2267C7.93142 14.66 6.25809 14.1133 4.59809 13.5533C4.44476 13.5 4.35809 13.5199 4.25142 13.6466C3.25809 14.8466 2.25142 16.0466 1.25809 17.2532C1.19143 17.3332 1.15143 17.4799 1.16476 17.5867C1.39809 19.86 2.13142 21.9599 3.33142 23.9067C3.46476 24.1266 3.62476 24.22 3.86476 24.2532C4.75809 24.3867 5.65142 24.5332 6.54476 24.6733C7.26476 24.7732 7.97142 24.8866 8.73809 25.0066ZM9.75809 25.6466C9.77142 25.6799 9.77142 25.7067 9.78476 25.7199C10.7914 27.3 11.7981 28.8799 12.8114 30.4532C12.8714 30.54 12.9981 30.6132 13.1048 30.6333C15.1981 31.0667 17.2847 31.0066 19.3581 30.5332C19.4648 30.5067 19.5848 30.42 19.6381 30.3266C20.4981 28.8399 21.3514 27.3533 22.1914 25.8532C22.2381 25.7732 22.2314 25.6066 22.1781 25.5332C21.3981 24.4866 20.6181 23.4532 19.8181 22.42C19.7581 22.34 19.6114 22.2733 19.5048 22.2733C17.1647 22.2667 14.8181 22.2667 12.4781 22.2733C12.3781 22.2733 12.2514 22.3332 12.1914 22.4066C11.3714 23.4866 10.5648 24.5732 9.75809 25.6466Z" fill="#3CDCA7"/>
</g>
</g>
<defs>
<clipPath id="clip0_402_6231">
<rect width="32" height="32" fill="white"/>
</clipPath>
</defs>
</svg>
