<svg width="32" height="32" viewBox="0 0 32 32" fill="none" xmlns="http://www.w3.org/2000/svg">
<path d="M30.8569 4.38944C30.6946 5.31705 30.1148 5.95864 29.4578 6.58478C27.5794 8.35495 25.7318 10.1561 23.8689 11.934C23.6988 12.0963 23.6602 12.2354 23.7374 12.4596C25.3145 17.2059 26.8914 21.9599 28.4683 26.706C28.5379 26.9148 28.5224 27.0463 28.3523 27.2085C27.448 28.0898 26.5589 28.9941 25.6622 29.8908C25.5928 29.9604 25.5232 30.0223 25.4304 30.1073C22.8949 25.9872 20.3671 21.8903 17.8317 17.7701C17.7621 17.8243 17.7003 17.8629 17.654 17.9093C15.59 19.8882 13.5261 21.8671 11.4699 23.8537C11.3772 23.9387 11.3308 24.1242 11.3462 24.2556C11.5318 25.446 11.7327 26.6365 11.9183 27.8269C11.9337 27.9197 11.9183 28.0511 11.8564 28.1052C10.9675 29.0097 10.0708 29.8986 9.1509 30.8185C9.11225 30.718 9.07361 30.6484 9.05041 30.5711C8.41654 28.77 7.78268 26.9689 7.15656 25.1679C7.09472 24.9977 7.00968 24.905 6.83962 24.8432C5.03852 24.217 3.23742 23.5832 1.43632 22.9492C1.36675 22.9261 1.28945 22.8952 1.14258 22.7792C1.26626 22.6941 1.41313 22.6169 1.52135 22.5087C2.29435 21.7434 3.06736 20.9627 3.8481 20.1973C3.93313 20.1123 4.10318 20.066 4.21914 20.0815C5.40956 20.2669 6.59998 20.468 7.79042 20.6535C7.89864 20.6689 8.06869 20.6225 8.146 20.5452C10.1558 18.4658 12.1502 16.3787 14.1523 14.2994C14.1832 14.2684 14.2141 14.2298 14.2604 14.1602C10.1326 11.6325 6.02796 9.10477 1.88466 6.55385C2.20159 6.24465 2.50307 5.95091 2.79681 5.6649C3.4616 5.00011 4.13411 4.35079 4.78342 3.67055C4.96122 3.48503 5.10036 3.46957 5.33226 3.54687C8.98857 4.76822 12.6526 5.9741 16.3166 7.18771C17.3988 7.5433 18.4811 7.89888 19.5555 8.26992C19.7797 8.34722 19.9188 8.3163 20.0812 8.13851C21.9286 6.19827 23.7916 4.28122 25.6314 2.33325C26.1802 1.74577 26.8064 1.30515 27.6102 1.14282C27.8653 1.14282 28.1128 1.14282 28.3678 1.14282C28.4297 1.15828 28.4915 1.1892 28.5611 1.19693C29.3186 1.35926 29.9448 1.73804 30.3545 2.39509C30.5864 2.77386 30.7022 3.21448 30.8646 3.6319C30.8569 3.88698 30.8569 4.14208 30.8569 4.38944Z" fill="#266EF2"/>
</svg>
